:SAMPLES-PER-SECOND 30
:FULLY-SPECIFIED
:DEGREES
205
root  15.77146635 37.61666666 -9.129755516 -8.079990387 -67.24980164 5.764430046
lfemur  -21.50789833 0.8328632712 5.526799679
ltibia  -1.491570742e-006 -8.364404493e-007 50.31699753
lfoot  5.521815751e-007 -1.981528997 -1.861469746
ltoes  -4.250644065 -19.5611806 -102.515957
rfemur  -10.18689919 23.48970032 3.317249537
rtibia  -8.727266732e-007 2.533748784e-007 53.29629517
rfoot  -2.316020982e-006 -25.02019882 -12.60409927
rtoes  5.373923086 19.29304026 -105.8922705
lowerback  11.53660011 2.125260115 -2.011539936
upperback  3.441679955 2.365560055 -2.784699917
thorax  -2.828739882 1.132210016 -2.086590052
rclavicle  0 -9.442270133e-015 7.951389973e-016
rhumerus  -5.655830383 29.3878994 -74.73429871
rradius  -7.782816926e-012 0.001642658608 136.7579956
rwrist  0.002739921212 0.003270594636 -10.37069988
rthumb  -92.93752616 -24.25625642 -97.11982154
rhand  -7.920061211e-032 -33.2840004 9.303460121
rfingers  -90 -7.125020027 -90
lclavicle  0 -9.442270133e-015 7.951389973e-016
lhumerus  2.144860506 9.4478302 61.24480057
lradius  1.032089952e-011 0.005718162749 143.2830048
lwrist  1.816137865e-011 1.409039812e-011 5.771120071
lthumb  89.89689403 5.08795885 91.16245106
lhand  -1.496451383e-031 -27.76390076 20.11240005
lfingers  90 7.125020027 -90
lowerneck  -5.993989944 11.78709984 -5.399869919
upperneck  12.02140045 16.63730049 -2.372370005
head  4.847109795 7.729690075 1.062459946
206
root  15.67051054 37.43444428 -8.98322158 -8.237139702 -66.5338974 5.542069435
lfemur  -21.4321003 0.3055378795 5.428377628
ltibia  -1.491570742e-006 -8.364404493e-007 49.73589706
lfoot  5.521815751e-007 -2.419556618 -2.445280313
ltoes  -4.250644065 -19.5611806 -102.515957
rfemur  -9.321006775 22.98629951 3.511238813
rtibia  -8.727266732e-007 2.533748784e-007 53.73129272
rfoot  -2.316020982e-006 -25.79229546 -12.60909939
rtoes  5.373923086 19.29304026 -105.8922705
lowerback  11.78509998 2.171040058 -2.198120117
upperback  3.231620073 2.384530067 -2.912329912
thorax  -3.185450077 1.143249989 -2.134059906
rclavicle  0 -9.442270133e-015 7.951389973e-016
rhumerus  -7.918020248 29.91600037 -74.53700256
rradius  -7.782816926e-012 0.001642658608 136.8760071
rwrist  0.002739921212 0.003270594636 -10.47809982
rthumb  -92.93752616 -24.25625642 -97.11982154
rhand  -7.920061211e-032 -33.2840004 9.303460121
rfingers  -90 -7.125020027 -90
lclavicle  0 -9.442270133e-015 7.951389973e-016
lhumerus  0.21309717 8.647620201 61.86299896
lradius  1.032089952e-011 0.005718162749 144.5879974
lwrist  1.816137865e-011 1.409039812e-011 4.066599846
lthumb  89.89689403 5.08795885 91.16245106
lhand  -1.496451383e-031 -27.76390076 20.11240005
lfingers  90 7.125020027 -90
lowerneck  -6.09800005 11.85900021 -5.373929977
upperneck  11.86839867 16.74200058 -2.434920073
head  4.817890167 7.784629822 1.044999957
207
root  15.56697755 37.26644441 -8.826977437 -7.993010044 -65.76450348 4.875279903
lfemur  -21.42879486 -0.05404909328 5.406297207
ltibia  -1.491570742e-006 -8.364404493e-007 49.48338699
lfoot  5.521815751e-007 -3.667105198 -2.443949461
ltoes  -4.250644065 -19.5611806 -102.515957
rfemur  -8.47473526 22.3512001 3.928131104
rtibia  -8.727266732e-007 2.533748784e-007 54.23649216
rfoot  -2.316020982e-006 -26.45429611 -12.62259769
rtoes  5.373923086 19.29304026 -105.8922705
lowerback  12.0092001 2.317100048 -2.629610062
upperback  3.068900108 2.524179935 -2.701109886
thorax  -3.503540039 1.217120051 -1.706640005
rclavicle  0 -9.442270133e-015 7.951389973e-016
rhumerus  -10.2227993 30.42099953 -73.82080078
rradius  -7.782816926e-012 0.001642658608 136.8070068
rwrist  0.002739921212 0.003270594636 -10.64850044
rthumb  -92.93752616 -24.25625642 -97.11982154
rhand  -7.920061211e-032 -33.2840004 9.303460121
rfingers  -90 -7.125020027 -90
lclavicle  0 -9.442270133e-015 7.951389973e-016
lhumerus  -1.744439244 7.868929863 63.1332016
lradius  1.032090038e-011 0.005718162749 145.7810059
lwrist  1.816137865e-011 1.409039812e-011 2.519079924
lthumb  89.89689403 5.08795885 91.16245106
lhand  -1.496451383e-031 -27.76390076 20.11240005
lfingers  90 7.125020027 -90
lowerneck  -6.080989838 11.83180046 -5.756859779
upperneck  11.44040012 16.73150063 -2.558829784
head  4.632959843 7.77850008 1.037909985
208
root  15.46006691 37.12466683 -8.659310979 -7.546120167 -64.74849701 4.043409348
lfemur  -21.71059036 -0.2317497283 5.32396841
ltibia  -1.491570742e-006 -8.364404493e-007 49.64249039
lfoot  5.521815751e-007 -5.16937542 -1.595729113
ltoes  -4.250644065 -19.5611806 -102.515957
rfemur  -7.579596519 21.55050087 4.421490669
rtibia  -8.727266732e-007 2.533748784e-007 54.7429924
rfoot  -2.316020982e-006 -26.80199623 -12.80569839
rtoes  5.373923086 19.29304026 -105.8922705
lowerback  12.07730007 2.372220039 -2.825180054
upperback  2.985599995 2.569489956 -2.69836998
thorax  -3.636149883 1.242319942 -1.606670022
rclavicle  0 -9.442270133e-015 7.951389973e-016
rhumerus  -12.72780132 30.90250015 -73.71440125
rradius  -7.782816926e-012 0.001642658608 136.4579926
rwrist  0.002739921212 0.003270594636 -9.989199638
rthumb  -92.93752616 -24.25625642 -97.11982154
rhand  -7.920061211e-032 -33.2840004 9.303460121
rfingers  -90 -7.125020027 -90
lclavicle  0 -9.442270133e-015 7.951389973e-016
lhumerus  -3.573079586 6.847330093 64.44599915
lradius  1.032090125e-011 0.005718162749 146.8930054
lwrist  1.816137865e-011 1.409039812e-011 0.7813519835
lthumb  89.89689403 5.08795885 91.16245106
lhand  -1.496451383e-031 -27.76390076 20.11240005
lfingers  90 7.125020027 -90
lowerneck  -6.537270069 11.81659985 -5.970079899
upperneck  11.36019993 16.7458992 -2.333120108
head  4.650109768 7.788440228 1.17227006
209
root  15.35257805 37.00666653 -8.47842224 -6.796609879 -63.37419891 2.957920313
lfemur  -22.38850212 -0.4850273132 5.197052002
ltibia  -1.491570742e-006 -8.364404493e-007 50.20560455
lfoot  5.521815751e-007 -6.667642593 -0.08662386239
ltoes  -4.250644065 -19.5611806 -102.515957
rfemur  -6.560191154 20.65519905 5.07805109
rtibia  -8.727266732e-007 2.533748784e-007 55.17630386
rfoot  -2.316020982e-006 -26.99110413 -13.07299995
rtoes  5.373923086 19.29304026 -105.8922705
lowerback  12.14350033 2.424319983 -3.231940031
upperback  2.845380068 2.597660065 -2.452889919
thorax  -3.848370075 1.26406002 -1.134449959
rclavicle  0 -9.442270133e-015 7.951389973e-016
rhumerus  -15.67109871 31.46949959 -73.38909912
rradius  -7.782816926e-012 0.001642658608 136.2100067
rwrist  0.002739921212 0.003270594636 -9.437669754
rthumb  -92.93752616 -24.25625642 -97.11982154
rhand  -7.920061211e-032 -33.2840004 9.303460121
rfingers  -90 -7.125020027 -90
lclavicle  0 -9.442270133e-015 7.951389973e-016
lhumerus  -5.65474987 5.347270012 66.41339874
lradius  1.032090038e-011 0.005718162749 148.0509949
lwrist  1.816137865e-011 1.409039812e-011 -1.28973031
lthumb  89.89689403 5.08795885 91.16245106
lhand  -1.496451383e-031 -27.76390076 20.11240005
lfingers  90 7.125020027 -90
lowerneck  -7.224040031 11.75109959 -6.41576004
upperneck  12.04090023 16.74469948 -1.897850156
head  4.456809998 7.764989853 1.338860035
210
root  15.2414442 36.89888781 -8.284155778 -5.111999989 -61.57300186 1.013390064
lfemur  -23.51839447 -0.7312665582 5.423398495
ltibia  -1.491570742e-006 -8.364404493e-007 51.05518723
lfoot  5.521815751e-007 -7.944645882 1.015230417
ltoes  -4.250644065 -19.5611806 -102.515957
rfemur  -5.50017786 19.63769913 6.290369987
rtibia  -8.727266732e-007 2.533748784e-007 55.48329163
rfoot  -2.316020982e-006 -27.06749535 -13.42159843
rtoes  5.373923086 19.29304026 -105.8922705
lowerback  12.05340004 2.339960098 -3.115010023
upperback  2.624370098 2.521729946 -2.201400042
thorax  -4.036300182 1.233850002 -0.9284539819
rclavicle  0 -9.442270133e-015 7.951389973e-016
rhumerus  -19.0965004 32.01589966 -73.35079956
rradius  -7.782816926e-012 0.001642658608 135.9980011
rwrist  0.002739921212 0.003270594636 -9.104200363
rthumb  -92.93752616 -24.25625642 -97.11982154
rhand  -7.920061211e-032 -33.2840004 9.303460121
rfingers  -90 -7.125020027 -90
lclavicle  0 -9.442270133e-015 7.951389973e-016
lhumerus  -7.580359936 3.842869997 68.35299683
lradius  1.032089865e-011 0.005718162749 148.7879944
lwrist  1.816137865e-011 1.409039812e-011 -2.667080164
lthumb  89.89689403 5.08795885 91.16245106
lhand  -1.496451383e-031 -27.76390076 20.11240005
lfingers  90 7.125020027 -90
lowerneck  -7.902190208 11.65750027 -6.766620159
upperneck  12.44379997 16.67790031 -1.323290229
head  4.61386013 7.727950096 1.608700037
211
root  15.11013301 36.81311119 -8.076044518 -2.966710091 -59.21310043 -1.259509683
lfemur  -25.05729485 -0.9645438194 5.892287731
ltibia  -1.491570742e-006 -8.364404493e-007 51.95658875
lfoot  5.521815751e-007 -9.036435127 1.348550439
ltoes  -4.250644065 -19.5611806 -102.515957
rfemur  -4.390296936 18.40810013 7.866678238
rtibia  -8.727266732e-007 2.533748784e-007 55.61029053
rfoot  -2.316020982e-006 -26.98089409 -13.95209885
rtoes  5.373923086 19.29304026 -105.8922705
lowerback  11.54500008 2.136800051 -2.718600035
upperback  2.432420015 2.347249985 -1.924299955
thorax  -3.951740026 1.152009964 -0.8195620179
rclavicle  0 -9.442270133e-015 7.951389973e-016
rhumerus  -22.77490044 32.41080093 -73.50309753
rradius  -7.782816926e-012 0.001642658608 135.6699982
rwrist  0.002739921212 0.003270594636 -8.309329987
rthumb  -92.93752616 -24.25625642 -97.11982154
rhand  -7.920061211e-032 -33.2840004 9.303460121
rfingers  -90 -7.125020027 -90
lclavicle  0 -9.442270133e-015 7.951389973e-016
lhumerus  -9.228650093 2.3285501 70.41989899
lradius  1.032090038e-011 0.005718162749 149.227005
lwrist  1.816137865e-011 1.409039812e-011 -3.46559
lthumb  89.89689403 5.08795885 91.16245106
lhand  -1.496451383e-031 -27.76390076 20.11240005
lfingers  90 7.125020027 -90
lowerneck  -8.528220177 11.45660019 -7.226809978
upperneck  12.78639984 16.45490074 -0.609061718
head  4.727789879 7.625860214 1.920349956
212
root  14.95091145 36.76311163 -7.871244085 -1.047390103 -56.32120132 -3.341319799
lfemur  -26.75109863 -1.402959704 6.435120106
ltibia  -1.491570742e-006 -8.364404493e-007 52.66949463
lfoot  5.521815751e-007 -9.852370262 1.510680556
ltoes  -4.250644065 -19.5611806 -102.515957
rfemur  -3.020109892 16.96949959 9.726578712
rtibia  -8.727266732e-007 2.533748784e-007 55.50979996
rfoot  -2.316020982e-006 -26.24189758 -15.43980026
rtoes  5.373923086 19.29304026 -105.8922705
lowerback  10.84799957 1.849789977 -2.460059881
upperback  2.312920094 2.05230999 -1.563040018
thorax  -3.69411993 1.010370016 -0.5235620141
rclavicle  0 -9.442270133e-015 7.951389973e-016
rhumerus  -26.34280014 32.46049881 -73.52870178
rradius  -7.782816926e-012 0.001642658608 135.6829987
rwrist  0.002739921212 0.003270594636 -8.380720139
rthumb  -92.93752616 -24.25625642 -97.11982154
rhand  -7.920061211e-032 -33.2840004 9.303460121
rfingers  -90 -7.125020027 -90
lclavicle  0 -9.442270133e-015 7.951389973e-016
lhumerus  -10.64920044 0.6907168627 72.67120361
lradius  1.032090125e-011 0.005718162749 149.4140015
lwrist  1.816137865e-011 1.409039812e-011 -3.934899807
lthumb  89.89689403 5.08795885 91.16245106
lhand  -1.496451383e-031 -27.76390076 20.11240005
lfingers  90 7.125020027 -90
lowerneck  -8.935290337 11.26669979 -7.608510017
upperneck  13.05690002 16.22550011 0.005564698484
head  4.801070213 7.525149822 2.176049948
